<svg xmlns="http://www.w3.org/2000/svg" width="12" height="16" viewBox="0 0 12 16">
  <path id="ico-PDF" d="M1268.333,475.1h-8.253a1.776,1.776,0,0,1-1.325-.587,2.034,2.034,0,0,1-.554-1.46V461.147a2.054,2.054,0,0,1,.554-1.46,1.732,1.732,0,0,1,1.325-.587h5.747l4.373,4.98v8.974a2.055,2.055,0,0,1-.554,1.46A1.75,1.75,0,0,1,1268.333,475.1Zm-8.374-14.128a.345.345,0,0,0-.048.162v11.906a.311.311,0,0,0,.048.162c.036.062.072.1.121.1h8.253c.048,0,.084-.037.12-.1a.344.344,0,0,0,.048-.162v-8.262l-3.361-3.906h-5.06C1260.031,460.872,1260,460.91,1259.959,460.972Zm2.711,7.289a1.065,1.065,0,0,1,.241.7.882.882,0,0,1-.241.637.939.939,0,0,1-.7.237h-.518v.8h-.687v-2.671h1.2A.924.924,0,0,1,1262.67,468.261Zm-.446.711a.414.414,0,0,0-.121-.325.42.42,0,0,0-.3-.125h-.349v.8h.265a.736.736,0,0,0,.374-.075A.293.293,0,0,0,1262.224,468.972Zm2.06-1a1.1,1.1,0,0,1,.928.362,1.571,1.571,0,0,1,.277.974,1.622,1.622,0,0,1-.277.973,1.1,1.1,0,0,1-.928.362h-1.108v-2.671Zm5.072-2.646h-6v-5.354h1.711v3.557h4.289Zm-5.482,4.793h.253a.508.508,0,0,0,.458-.2,1.313,1.313,0,0,0,0-1.2.521.521,0,0,0-.458-.2h-.253Zm2.639-.462h1.036v-.524h-1.036v-.624h1.121v-.537h-1.807v2.671h.687Z" transform="translate(-1258.2 -459.1)" fill="#fff"/>
</svg>
